# xmcd
#
# Track frame offsets: 
#        150
#        24537
#        43843
#        73900
#        95216
#        136356
#        154764
#        176648
#        193706
#        218149
#        238712
#
# Disc length: 3512 seconds
#
# Revision: 0
# Processed by: cddbd v1.5.2PL0 Copyright (c) Steve Scherf et al.
# Submitted via: ExactAudioCopy v1.0b3
#
DISCID=a50db60b
DTITLE=Leroy Emmanuel - International Soul-Brother
DYEAR=2013
DGENRE=Soul
TTITLE0=Call It Stormy Monday
TTITLE1=My Girl
TTITLE2=I Heard It Through the Grapevine
TTITLE3=Let's Stay Together
TTITLE4=Europa (Earth's Cry Heaven Smile)
TTITLE5=What's Going On
TTITLE6=CNN Blues
TTITLE7=Ain't Too Proud to Big
TTITLE8=On Broadway
TTITLE9=Brick House
TTITLE10=Papa's (Corrado's) Got a Brand New Bag
EXTD=
EXTT0=
EXTT1=
EXTT2=
EXTT3=
EXTT4=
EXTT5=
EXTT6=
EXTT7=
EXTT8=
EXTT9=
EXTT10=
PLAYORDER=
